<svg width="23" height="23" viewBox="0 0 23 23" fill="none" xmlns="http://www.w3.org/2000/svg">
<path d="M1.91507 0C2.96836 0 3.83014 0.8625 3.83014 1.91667V21.0833C3.83014 22.1375 2.96836 23 1.91507 23C0.861782 23 0 22.1375 0 21.0833V1.91667C0 0.8625 0.861782 0 1.91507 0ZM8.92423 13.0717L19.9742 20.8725C21.2381 21.7733 23 20.8533 23 19.3008V3.69917C23 2.14667 21.2573 1.24583 19.9742 2.1275L8.92423 9.92833C8.67144 10.1051 8.4648 10.34 8.32232 10.6137C8.17965 10.8874 8.10535 11.1914 8.10535 11.5C8.10535 11.8086 8.17965 12.1126 8.32232 12.3863C8.4648 12.66 8.67144 12.8949 8.92423 13.0717Z" fill="white"/>
</svg>
