<svg width="60" height="60" viewBox="0 0 60 60" fill="none" xmlns="http://www.w3.org/2000/svg">
<path d="M30 0C13.44 0 0 13.44 0 30C0 46.56 13.44 60 30 60C46.56 60 60 46.56 60 30C60 13.44 46.56 0 30 0ZM24 40.5V19.5C24 19.2214 24.0777 18.9484 24.2241 18.7114C24.3705 18.4745 24.5799 18.2829 24.8292 18.1584C25.0782 18.0338 25.3572 17.981 25.6347 18.0061C25.9122 18.0311 26.1771 18.1329 26.4 18.3L40.41 28.8C41.22 29.4 41.22 30.6 40.41 31.2L26.4 41.7C26.1771 41.8671 25.9122 41.9688 25.6347 41.994C25.3572 42.0189 25.0782 41.9661 24.8292 41.8416C24.5799 41.7171 24.3705 41.5257 24.2241 41.2887C24.0777 41.0517 24 40.7787 24 40.5Z" fill="white"/>
</svg>
