<svg width="16" height="17" viewBox="0 0 16 17" fill="none" xmlns="http://www.w3.org/2000/svg">
<path d="M6.34376 5.49313L1.75682 0.743759C1.66182 0.645392 1.54903 0.567363 1.4249 0.514121C1.30077 0.46089 1.16773 0.433488 1.03337 0.433488C0.899014 0.433488 0.765972 0.46089 0.641847 0.514121C0.517722 0.567363 0.404936 0.645392 0.309923 0.743759C0.21492 0.842125 0.139559 0.958904 0.088148 1.08743C0.0367268 1.21595 0.0102619 1.35371 0.0102619 1.49282C0.0102619 1.63193 0.0367268 1.76969 0.088148 1.89821C0.139559 2.02674 0.21492 2.14352 0.309923 2.24188L4.88663 6.98062L6.34376 5.49313ZM11.2283 0.903134L12.4495 2.16751L0.299662 14.7475C0.204659 14.8459 0.129297 14.9626 0.0778861 15.0912C0.0264649 15.2197 0 15.3575 0 15.4966C0 15.6356 0.0264649 15.7734 0.0778861 15.902C0.129297 16.0305 0.204659 16.1472 0.299662 16.2456C0.394674 16.344 0.50746 16.422 0.631585 16.4752C0.755711 16.5285 0.888753 16.5559 1.02311 16.5559C1.15746 16.5559 1.29051 16.5285 1.41464 16.4752C1.53877 16.422 1.65155 16.344 1.74656 16.2456L13.9066 3.67626L15.1277 4.94063C15.2001 5.01405 15.2918 5.06366 15.3914 5.0832C15.4909 5.10274 15.5937 5.09134 15.687 5.05043C15.7803 5.00954 15.8598 4.94095 15.9155 4.85335C15.9712 4.76573 16.0006 4.66301 16 4.55813V0.531259C16 0.233759 15.7742 9.17482e-06 15.4869 9.17482e-06H11.5977C11.4965 -0.000607075 11.3972 0.0298333 11.3127 0.0875058C11.228 0.145168 11.1618 0.22748 11.1223 0.324061C11.0828 0.420642 11.0717 0.527168 11.0906 0.63022C11.1095 0.733272 11.1574 0.828227 11.2283 0.903134ZM10.6947 9.99812L9.24782 11.4962L12.4597 14.8219L11.2283 16.0969C11.1574 16.1718 11.1095 16.2668 11.0906 16.3698C11.0717 16.4729 11.0828 16.5793 11.1223 16.6759C11.1618 16.7725 11.228 16.8549 11.3127 16.9125C11.3972 16.9701 11.4965 17.0006 11.5977 17H15.4869C15.7742 17 16 16.7662 16 16.4687V12.4419C16 11.9637 15.4459 11.73 15.1277 12.07L13.9066 13.3344L10.6947 9.99812Z" fill="white"/>
</svg>
