<svg width="21" height="19" viewBox="0 0 21 19" fill="none" xmlns="http://www.w3.org/2000/svg">
<path d="M18.5402 1.03979C15.7693 -0.849487 12.3476 0.0321745 10.5003 2.19434C8.65299 0.0321745 5.23132 -0.859983 2.46038 1.03979C0.990945 2.0474 0.0672996 3.74775 0.00432379 5.54256C-0.14262 9.61505 3.46799 12.8793 8.97837 17.8859L9.08333 17.9803C9.88102 18.7046 11.109 18.7046 11.9067 17.9698L12.0222 17.8649C17.5326 12.8688 21.1327 9.60455 20.9963 5.53206C20.9333 3.74775 20.0096 2.0474 18.5402 1.03979ZM10.6052 16.322L10.5003 16.4269L10.3953 16.322C5.39925 11.7982 2.10352 8.80686 2.10352 5.77347C2.10352 3.67428 3.67791 2.09988 5.77711 2.09988C7.39349 2.09988 8.96787 3.13898 9.52416 4.57693H11.4869C12.0327 3.13898 13.6071 2.09988 15.2235 2.09988C17.3227 2.09988 18.8971 3.67428 18.8971 5.77347C18.8971 8.80686 15.6013 11.7982 10.6052 16.322Z" fill="white"/>
</svg>
