<svg width="18" height="20" viewBox="0 0 18 20" fill="none" xmlns="http://www.w3.org/2000/svg">
<path d="M3.88054 4.61957H14.1195V6.54577C14.1195 7.03001 14.6724 7.26675 14.9898 6.9224L17.8464 3.92012C18.0512 3.7049 18.0512 3.37131 17.8464 3.1561L14.9898 0.153816C14.9176 0.0794584 14.826 0.0292159 14.7267 0.00942666C14.6274 -0.0103733 14.5248 0.00117298 14.4317 0.0426023C14.3387 0.0840316 14.2593 0.153493 14.2037 0.242216C14.1481 0.330951 14.1188 0.434976 14.1195 0.541207V2.4674H2.85665C2.29351 2.4674 1.83276 2.95164 1.83276 3.54349V7.84783C1.83276 8.43971 2.29351 8.92395 2.85665 8.92395C3.41979 8.92395 3.88054 8.43971 3.88054 7.84783V4.61957ZM14.1195 15.3805H3.88054V13.4543C3.88054 12.97 3.32764 12.7333 3.01023 13.0776L0.153583 16.0799C-0.0511944 16.2951 -0.0511944 16.6287 0.153583 16.8439L3.01023 19.8462C3.08242 19.9206 3.17392 19.9708 3.27323 19.9906C3.37253 20.0103 3.47519 19.9988 3.56826 19.9574C3.66133 19.916 3.74065 19.8466 3.79622 19.7578C3.8518 19.6691 3.88113 19.5651 3.88054 19.4588V17.5326H15.1434C15.7065 17.5326 16.1672 17.0484 16.1672 16.4566V12.1522C16.1672 11.5604 15.7065 11.0761 15.1434 11.0761C14.5802 11.0761 14.1195 11.5604 14.1195 12.1522V15.3805Z" fill="white"/>
</svg>
