<svg width="38" height="38" viewBox="0 0 38 38" fill="none" xmlns="http://www.w3.org/2000/svg">
<path d="M28.9815 14.4624L22.8382 20.6057L16.6949 14.4624C16.5483 14.3158 16.3743 14.1995 16.1827 14.1202C15.9912 14.0408 15.7859 14 15.5786 14C15.3713 14 15.166 14.0408 14.9745 14.1202C14.783 14.1995 14.6089 14.3158 14.4624 14.4624C14.3158 14.6089 14.1995 14.783 14.1202 14.9745C14.0408 15.166 14 15.3713 14 15.5786C14 15.7859 14.0408 15.9911 14.1202 16.1827C14.1995 16.3743 14.3158 16.5483 14.4624 16.6949L21.7299 23.9624C22.3474 24.5799 23.3449 24.5799 23.9624 23.9624L31.2299 16.6949C31.3767 16.5485 31.493 16.3744 31.5725 16.1829C31.652 15.9913 31.6928 15.7859 31.6928 15.5786C31.6928 15.3712 31.652 15.1659 31.5725 14.9744C31.493 14.7828 31.3767 14.6088 31.2299 14.4624C30.6124 13.8607 29.599 13.8449 28.9815 14.4624Z" fill="white"/>
</svg>
